<svg width="7858" height="2839" viewBox="0 0 7858 2839" fill="none" xmlns="http://www.w3.org/2000/svg">
<g id="Group 20">
<rect id="Rectangle 66" width="7858" height="2837" fill="#640C61"/>
<g id="Intersect" style="mix-blend-mode:multiply">
<path fill-rule="evenodd" clip-rule="evenodd" d="M0 894.736C63.4049 885.762 128.382 882.1 194.62 884.804C515.404 897.901 1007.59 1121.41 1555.25 1370.11C2262.62 1691.34 3062.54 2054.59 3705.18 2060.74C4254.96 2066 4888.45 1516.84 5558.85 935.681C5944.72 601.177 6342.81 256.076 6744.2 0H7857.17V2837.31H0L0 894.736Z" fill="#D9D9D9"/>
</g>
<g id="Intersect_2" style="mix-blend-mode:multiply">
<path fill-rule="evenodd" clip-rule="evenodd" d="M0 1167.3C113.142 1140.33 231.92 1126.56 354.664 1131.16C704.67 1144.25 1241.7 1367.74 1839.25 1616.42C2611.06 1937.63 3483.85 2300.85 4185.03 2307C4784.9 2312.27 5476.1 1763.14 6207.57 1182.03C6742.56 757.008 7299.09 314.875 7857.17 60.021V2839H0V1167.3Z" fill="#D9D9D9"/>
</g>
</g>
</svg>
